<mxfile host="app.diagrams.net" agent="Mozilla/5.0 (Windows NT 10.0; Win64; x64) AppleWebKit/537.36 (KHTML, like Gecko) Chrome/141.0.0.0 Safari/537.36 Edg/141.0.0.0" version="28.2.7">
  <diagram name="Page-1" id="2YBvvXClWsGukQMizWep">
    <mxGraphModel grid="1" page="1" gridSize="10" guides="1" tooltips="1" connect="1" arrows="1" fold="1" pageScale="1" pageWidth="850" pageHeight="1100" math="0" shadow="0">
      <root>
        <mxCell id="0" />
        <mxCell id="1" parent="0" />
        <mxCell id="YJkmyNPaHjpCNyC6iMMe-1" value=":GUI" style="shape=umlLifeline;perimeter=lifelinePerimeter;whiteSpace=wrap;html=1;container=0;dropTarget=0;collapsible=0;recursiveResize=0;outlineConnect=0;portConstraint=eastwest;newEdgeStyle={&quot;edgeStyle&quot;:&quot;elbowEdgeStyle&quot;,&quot;elbow&quot;:&quot;vertical&quot;,&quot;curved&quot;:0,&quot;rounded&quot;:0};" vertex="1" parent="1">
          <mxGeometry x="60" y="10" width="100" height="1030" as="geometry" />
        </mxCell>
        <mxCell id="YJkmyNPaHjpCNyC6iMMe-2" value="" style="html=1;points=[];perimeter=orthogonalPerimeter;outlineConnect=0;targetShapes=umlLifeline;portConstraint=eastwest;newEdgeStyle={&quot;edgeStyle&quot;:&quot;elbowEdgeStyle&quot;,&quot;elbow&quot;:&quot;vertical&quot;,&quot;curved&quot;:0,&quot;rounded&quot;:0};" vertex="1" parent="YJkmyNPaHjpCNyC6iMMe-1">
          <mxGeometry x="45" y="70" width="10" height="930" as="geometry" />
        </mxCell>
        <mxCell id="YJkmyNPaHjpCNyC6iMMe-3" value=":ControllerClass" style="shape=umlLifeline;perimeter=lifelinePerimeter;whiteSpace=wrap;html=1;container=0;dropTarget=0;collapsible=0;recursiveResize=0;outlineConnect=0;portConstraint=eastwest;newEdgeStyle={&quot;edgeStyle&quot;:&quot;elbowEdgeStyle&quot;,&quot;elbow&quot;:&quot;vertical&quot;,&quot;curved&quot;:0,&quot;rounded&quot;:0};" vertex="1" parent="1">
          <mxGeometry x="220" y="10" width="100" height="1030" as="geometry" />
        </mxCell>
        <mxCell id="YJkmyNPaHjpCNyC6iMMe-4" value="" style="html=1;points=[];perimeter=orthogonalPerimeter;outlineConnect=0;targetShapes=umlLifeline;portConstraint=eastwest;newEdgeStyle={&quot;edgeStyle&quot;:&quot;elbowEdgeStyle&quot;,&quot;elbow&quot;:&quot;vertical&quot;,&quot;curved&quot;:0,&quot;rounded&quot;:0};" vertex="1" parent="YJkmyNPaHjpCNyC6iMMe-3">
          <mxGeometry x="45" y="80" width="10" height="790" as="geometry" />
        </mxCell>
        <mxCell id="YJkmyNPaHjpCNyC6iMMe-5" value="ResetPassword(mail or username)" style="html=1;verticalAlign=bottom;endArrow=block;edgeStyle=elbowEdgeStyle;elbow=horizontal;curved=0;rounded=0;" edge="1" parent="1" source="YJkmyNPaHjpCNyC6iMMe-2" target="YJkmyNPaHjpCNyC6iMMe-4">
          <mxGeometry relative="1" as="geometry">
            <mxPoint x="235" y="100" as="sourcePoint" />
            <Array as="points">
              <mxPoint x="220" y="90" />
            </Array>
          </mxGeometry>
        </mxCell>
        <mxCell id="YJkmyNPaHjpCNyC6iMMe-6" value="UserCatalog" style="shape=umlLifeline;perimeter=lifelinePerimeter;whiteSpace=wrap;html=1;container=0;dropTarget=0;collapsible=0;recursiveResize=0;outlineConnect=0;portConstraint=eastwest;newEdgeStyle={&quot;edgeStyle&quot;:&quot;elbowEdgeStyle&quot;,&quot;elbow&quot;:&quot;vertical&quot;,&quot;curved&quot;:0,&quot;rounded&quot;:0};" vertex="1" parent="1">
          <mxGeometry x="380" y="10" width="100" height="1030" as="geometry" />
        </mxCell>
        <mxCell id="YJkmyNPaHjpCNyC6iMMe-7" value="" style="html=1;points=[];perimeter=orthogonalPerimeter;outlineConnect=0;targetShapes=umlLifeline;portConstraint=eastwest;newEdgeStyle={&quot;edgeStyle&quot;:&quot;elbowEdgeStyle&quot;,&quot;elbow&quot;:&quot;vertical&quot;,&quot;curved&quot;:0,&quot;rounded&quot;:0};" vertex="1" parent="YJkmyNPaHjpCNyC6iMMe-6">
          <mxGeometry x="45" y="110" width="10" height="240" as="geometry" />
        </mxCell>
        <mxCell id="YJkmyNPaHjpCNyC6iMMe-8" value=":User" style="shape=umlLifeline;perimeter=lifelinePerimeter;whiteSpace=wrap;html=1;container=0;dropTarget=0;collapsible=0;recursiveResize=0;outlineConnect=0;portConstraint=eastwest;newEdgeStyle={&quot;edgeStyle&quot;:&quot;elbowEdgeStyle&quot;,&quot;elbow&quot;:&quot;vertical&quot;,&quot;curved&quot;:0,&quot;rounded&quot;:0};" vertex="1" parent="1">
          <mxGeometry x="540" y="10" width="100" height="1030" as="geometry" />
        </mxCell>
        <mxCell id="YJkmyNPaHjpCNyC6iMMe-9" value="" style="html=1;points=[];perimeter=orthogonalPerimeter;outlineConnect=0;targetShapes=umlLifeline;portConstraint=eastwest;newEdgeStyle={&quot;edgeStyle&quot;:&quot;elbowEdgeStyle&quot;,&quot;elbow&quot;:&quot;vertical&quot;,&quot;curved&quot;:0,&quot;rounded&quot;:0};" vertex="1" parent="YJkmyNPaHjpCNyC6iMMe-8">
          <mxGeometry x="45" y="160" width="10" height="680" as="geometry" />
        </mxCell>
        <mxCell id="YJkmyNPaHjpCNyC6iMMe-10" value=":ContactInfo" style="shape=umlLifeline;perimeter=lifelinePerimeter;whiteSpace=wrap;html=1;container=0;dropTarget=0;collapsible=0;recursiveResize=0;outlineConnect=0;portConstraint=eastwest;newEdgeStyle={&quot;edgeStyle&quot;:&quot;elbowEdgeStyle&quot;,&quot;elbow&quot;:&quot;vertical&quot;,&quot;curved&quot;:0,&quot;rounded&quot;:0};" vertex="1" parent="1">
          <mxGeometry x="700" y="10" width="100" height="1030" as="geometry" />
        </mxCell>
        <mxCell id="YJkmyNPaHjpCNyC6iMMe-11" value="" style="html=1;points=[];perimeter=orthogonalPerimeter;outlineConnect=0;targetShapes=umlLifeline;portConstraint=eastwest;newEdgeStyle={&quot;edgeStyle&quot;:&quot;elbowEdgeStyle&quot;,&quot;elbow&quot;:&quot;vertical&quot;,&quot;curved&quot;:0,&quot;rounded&quot;:0};" vertex="1" parent="YJkmyNPaHjpCNyC6iMMe-10">
          <mxGeometry x="45" y="180" width="10" height="40" as="geometry" />
        </mxCell>
        <mxCell id="YJkmyNPaHjpCNyC6iMMe-12" style="edgeStyle=orthogonalEdgeStyle;rounded=0;orthogonalLoop=1;jettySize=auto;html=1;" edge="1" parent="1">
          <mxGeometry relative="1" as="geometry">
            <mxPoint x="16" y="80" as="sourcePoint" />
            <mxPoint x="105.5" y="80" as="targetPoint" />
            <Array as="points">
              <mxPoint x="66" y="80" />
              <mxPoint x="66" y="80" />
            </Array>
          </mxGeometry>
        </mxCell>
        <mxCell id="YJkmyNPaHjpCNyC6iMMe-13" value="User" style="shape=umlActor;verticalLabelPosition=bottom;verticalAlign=top;html=1;outlineConnect=0;" vertex="1" parent="1">
          <mxGeometry x="-10" y="50" width="30" height="60" as="geometry" />
        </mxCell>
        <mxCell id="YJkmyNPaHjpCNyC6iMMe-18" value="&lt;br&gt;GetUserByEmailorUsername()" style="html=1;verticalAlign=bottom;endArrow=block;edgeStyle=elbowEdgeStyle;elbow=horizontal;curved=0;rounded=0;" edge="1" parent="1">
          <mxGeometry relative="1" as="geometry">
            <mxPoint x="275" y="120" as="sourcePoint" />
            <Array as="points">
              <mxPoint x="380" y="120" />
            </Array>
            <mxPoint x="425" y="120" as="targetPoint" />
          </mxGeometry>
        </mxCell>
        <mxCell id="YJkmyNPaHjpCNyC6iMMe-19" value="for each user" style="shape=umlFrame;whiteSpace=wrap;html=1;pointerEvents=0;" vertex="1" parent="1">
          <mxGeometry x="405" y="130" width="385" height="250" as="geometry" />
        </mxCell>
        <mxCell id="YJkmyNPaHjpCNyC6iMMe-20" value="MatchEmail()" style="html=1;verticalAlign=bottom;endArrow=block;edgeStyle=elbowEdgeStyle;elbow=vertical;curved=0;rounded=0;" edge="1" parent="1">
          <mxGeometry relative="1" as="geometry">
            <mxPoint x="434" y="172" as="sourcePoint" />
            <Array as="points">
              <mxPoint x="539" y="172" />
            </Array>
            <mxPoint x="584" y="172" as="targetPoint" />
          </mxGeometry>
        </mxCell>
        <mxCell id="YJkmyNPaHjpCNyC6iMMe-21" value="isMatched(email)" style="html=1;verticalAlign=bottom;endArrow=block;edgeStyle=elbowEdgeStyle;elbow=vertical;curved=0;rounded=0;" edge="1" parent="1">
          <mxGeometry relative="1" as="geometry">
            <mxPoint x="596" y="188.5" as="sourcePoint" />
            <Array as="points">
              <mxPoint x="701" y="188.5" />
            </Array>
            <mxPoint x="746" y="188.5" as="targetPoint" />
          </mxGeometry>
        </mxCell>
        <mxCell id="YJkmyNPaHjpCNyC6iMMe-22" value="return isMatch" style="html=1;verticalAlign=bottom;endArrow=open;dashed=1;endSize=8;edgeStyle=elbowEdgeStyle;elbow=vertical;curved=0;rounded=0;" edge="1" parent="1">
          <mxGeometry relative="1" as="geometry">
            <mxPoint x="594" y="212.5" as="targetPoint" />
            <Array as="points">
              <mxPoint x="709" y="212.5" />
            </Array>
            <mxPoint x="744" y="212.5" as="sourcePoint" />
          </mxGeometry>
        </mxCell>
        <mxCell id="YJkmyNPaHjpCNyC6iMMe-23" value="return isFound" style="html=1;verticalAlign=bottom;endArrow=open;dashed=1;endSize=8;edgeStyle=elbowEdgeStyle;elbow=vertical;curved=0;rounded=0;" edge="1" parent="1">
          <mxGeometry relative="1" as="geometry">
            <mxPoint x="435" y="229" as="targetPoint" />
            <Array as="points">
              <mxPoint x="550" y="229" />
            </Array>
            <mxPoint x="585" y="229" as="sourcePoint" />
          </mxGeometry>
        </mxCell>
        <mxCell id="YJkmyNPaHjpCNyC6iMMe-24" value="if notFound" style="shape=umlFrame;whiteSpace=wrap;html=1;pointerEvents=0;" vertex="1" parent="1">
          <mxGeometry x="200" y="400" width="910" height="70" as="geometry" />
        </mxCell>
        <mxCell id="YJkmyNPaHjpCNyC6iMMe-25" value="Display &quot;User Doesnt&lt;br&gt;Exist&quot;" style="html=1;verticalAlign=bottom;endArrow=open;dashed=1;endSize=8;edgeStyle=elbowEdgeStyle;elbow=vertical;curved=0;rounded=0;" edge="1" parent="1">
          <mxGeometry relative="1" as="geometry">
            <mxPoint x="115" y="464" as="targetPoint" />
            <Array as="points">
              <mxPoint x="230" y="464" />
            </Array>
            <mxPoint x="265" y="464" as="sourcePoint" />
          </mxGeometry>
        </mxCell>
        <mxCell id="YJkmyNPaHjpCNyC6iMMe-26" value="else" style="shape=umlFrame;whiteSpace=wrap;html=1;pointerEvents=0;" vertex="1" parent="1">
          <mxGeometry x="200" y="470" width="910" height="530" as="geometry" />
        </mxCell>
        <mxCell id="YJkmyNPaHjpCNyC6iMMe-27" value="if isfound" style="shape=umlFrame;whiteSpace=wrap;html=1;pointerEvents=0;" vertex="1" parent="1">
          <mxGeometry x="410" y="238" width="220" height="40" as="geometry" />
        </mxCell>
        <mxCell id="YJkmyNPaHjpCNyC6iMMe-28" value="return Found?" style="html=1;verticalAlign=bottom;endArrow=open;dashed=1;endSize=8;edgeStyle=elbowEdgeStyle;elbow=horizontal;curved=0;rounded=0;" edge="1" parent="1">
          <mxGeometry relative="1" as="geometry">
            <mxPoint x="274" y="274" as="targetPoint" />
            <Array as="points">
              <mxPoint x="389" y="274" />
            </Array>
            <mxPoint x="424" y="274" as="sourcePoint" />
          </mxGeometry>
        </mxCell>
        <mxCell id="YJkmyNPaHjpCNyC6iMMe-29" value="else" style="shape=umlFrame;whiteSpace=wrap;html=1;pointerEvents=0;" vertex="1" parent="1">
          <mxGeometry x="410" y="279" width="220" height="91" as="geometry" />
        </mxCell>
        <mxCell id="YJkmyNPaHjpCNyC6iMMe-30" value="MatchUsername()" style="html=1;verticalAlign=bottom;endArrow=block;edgeStyle=elbowEdgeStyle;elbow=vertical;curved=0;rounded=0;" edge="1" parent="1">
          <mxGeometry relative="1" as="geometry">
            <mxPoint x="435" y="320" as="sourcePoint" />
            <Array as="points">
              <mxPoint x="540" y="320" />
            </Array>
            <mxPoint x="585" y="320" as="targetPoint" />
          </mxGeometry>
        </mxCell>
        <mxCell id="YJkmyNPaHjpCNyC6iMMe-31" value="return isFound" style="html=1;verticalAlign=bottom;endArrow=open;dashed=1;endSize=8;edgeStyle=elbowEdgeStyle;elbow=vertical;curved=0;rounded=0;" edge="1" parent="1">
          <mxGeometry relative="1" as="geometry">
            <mxPoint x="435" y="340" as="targetPoint" />
            <Array as="points">
              <mxPoint x="550" y="340" />
            </Array>
            <mxPoint x="585" y="340" as="sourcePoint" />
          </mxGeometry>
        </mxCell>
        <mxCell id="YJkmyNPaHjpCNyC6iMMe-32" value="return Found?" style="html=1;verticalAlign=bottom;endArrow=open;dashed=1;endSize=8;edgeStyle=elbowEdgeStyle;elbow=horizontal;curved=0;rounded=0;" edge="1" parent="1">
          <mxGeometry relative="1" as="geometry">
            <mxPoint x="274" y="360" as="targetPoint" />
            <Array as="points">
              <mxPoint x="389" y="360" />
            </Array>
            <mxPoint x="424" y="360" as="sourcePoint" />
          </mxGeometry>
        </mxCell>
        <mxCell id="YJkmyNPaHjpCNyC6iMMe-40" value=":NotificationSystem" style="shape=umlLifeline;perimeter=lifelinePerimeter;whiteSpace=wrap;html=1;container=0;dropTarget=0;collapsible=0;recursiveResize=0;outlineConnect=0;portConstraint=eastwest;newEdgeStyle={&quot;edgeStyle&quot;:&quot;elbowEdgeStyle&quot;,&quot;elbow&quot;:&quot;vertical&quot;,&quot;curved&quot;:0,&quot;rounded&quot;:0};" vertex="1" parent="1">
          <mxGeometry x="860" y="9" width="100" height="1031" as="geometry" />
        </mxCell>
        <mxCell id="YJkmyNPaHjpCNyC6iMMe-41" value="" style="html=1;points=[];perimeter=orthogonalPerimeter;outlineConnect=0;targetShapes=umlLifeline;portConstraint=eastwest;newEdgeStyle={&quot;edgeStyle&quot;:&quot;elbowEdgeStyle&quot;,&quot;elbow&quot;:&quot;vertical&quot;,&quot;curved&quot;:0,&quot;rounded&quot;:0};" vertex="1" parent="YJkmyNPaHjpCNyC6iMMe-40">
          <mxGeometry x="45" y="508" width="10" height="40" as="geometry" />
        </mxCell>
        <mxCell id="YJkmyNPaHjpCNyC6iMMe-42" value=":DB" style="shape=umlLifeline;perimeter=lifelinePerimeter;whiteSpace=wrap;html=1;container=0;dropTarget=0;collapsible=0;recursiveResize=0;outlineConnect=0;portConstraint=eastwest;newEdgeStyle={&quot;edgeStyle&quot;:&quot;elbowEdgeStyle&quot;,&quot;elbow&quot;:&quot;vertical&quot;,&quot;curved&quot;:0,&quot;rounded&quot;:0};" vertex="1" parent="1">
          <mxGeometry x="1020" y="10" width="100" height="1030" as="geometry" />
        </mxCell>
        <mxCell id="YJkmyNPaHjpCNyC6iMMe-43" value="" style="html=1;points=[];perimeter=orthogonalPerimeter;outlineConnect=0;targetShapes=umlLifeline;portConstraint=eastwest;newEdgeStyle={&quot;edgeStyle&quot;:&quot;elbowEdgeStyle&quot;,&quot;elbow&quot;:&quot;vertical&quot;,&quot;curved&quot;:0,&quot;rounded&quot;:0};" vertex="1" parent="YJkmyNPaHjpCNyC6iMMe-42">
          <mxGeometry x="45" y="810" width="10" height="30" as="geometry" />
        </mxCell>
        <mxCell id="YJkmyNPaHjpCNyC6iMMe-48" value="Notification(Subject,OTP)" style="html=1;verticalAlign=bottom;endArrow=block;curved=0;rounded=0;" edge="1" parent="1">
          <mxGeometry width="80" relative="1" as="geometry">
            <mxPoint x="272.75" y="518" as="sourcePoint" />
            <mxPoint x="907.2499999999995" y="518" as="targetPoint" />
          </mxGeometry>
        </mxCell>
        <mxCell id="YJkmyNPaHjpCNyC6iMMe-49" value="return Notification object" style="html=1;verticalAlign=bottom;endArrow=open;dashed=1;endSize=8;edgeStyle=elbowEdgeStyle;elbow=horizontal;curved=0;rounded=0;" edge="1" parent="1">
          <mxGeometry relative="1" as="geometry">
            <mxPoint x="275" y="541" as="targetPoint" />
            <Array as="points">
              <mxPoint x="410" y="541" />
              <mxPoint x="495" y="581" />
            </Array>
            <mxPoint x="909.4999999999995" y="541" as="sourcePoint" />
          </mxGeometry>
        </mxCell>
        <mxCell id="YJkmyNPaHjpCNyC6iMMe-51" value="SendMail(email,notification)" style="html=1;align=left;spacingLeft=2;endArrow=block;rounded=0;edgeStyle=orthogonalEdgeStyle;curved=0;rounded=0;" edge="1" parent="1">
          <mxGeometry relative="1" as="geometry">
            <mxPoint x="275" y="553" as="sourcePoint" />
            <Array as="points">
              <mxPoint x="305" y="583" />
            </Array>
            <mxPoint x="280" y="583.047619047619" as="targetPoint" />
          </mxGeometry>
        </mxCell>
        <mxCell id="YJkmyNPaHjpCNyC6iMMe-52" value="Entered OTP" style="html=1;verticalAlign=bottom;endArrow=block;edgeStyle=elbowEdgeStyle;elbow=vertical;curved=0;rounded=0;" edge="1" parent="1">
          <mxGeometry relative="1" as="geometry">
            <mxPoint x="116" y="600" as="sourcePoint" />
            <Array as="points">
              <mxPoint x="221" y="600" />
            </Array>
            <mxPoint x="266" y="600" as="targetPoint" />
          </mxGeometry>
        </mxCell>
        <mxCell id="YJkmyNPaHjpCNyC6iMMe-53" value="GenerateOTP()" style="html=1;align=left;spacingLeft=2;endArrow=block;rounded=0;edgeStyle=orthogonalEdgeStyle;curved=0;rounded=0;" edge="1" parent="1">
          <mxGeometry relative="1" as="geometry">
            <mxPoint x="275" y="480" as="sourcePoint" />
            <Array as="points">
              <mxPoint x="305" y="480" />
              <mxPoint x="305" y="510" />
            </Array>
            <mxPoint x="280" y="510.04761904761904" as="targetPoint" />
          </mxGeometry>
        </mxCell>
        <mxCell id="YJkmyNPaHjpCNyC6iMMe-54" value="VerifyOTP(OTP)" style="html=1;align=left;spacingLeft=2;endArrow=block;rounded=0;edgeStyle=orthogonalEdgeStyle;curved=0;rounded=0;" edge="1" parent="1">
          <mxGeometry relative="1" as="geometry">
            <mxPoint x="276" y="614" as="sourcePoint" />
            <Array as="points">
              <mxPoint x="306" y="644" />
            </Array>
            <mxPoint x="281" y="644.047619047619" as="targetPoint" />
          </mxGeometry>
        </mxCell>
        <mxCell id="YJkmyNPaHjpCNyC6iMMe-55" value="if OTP wrong" style="shape=umlFrame;whiteSpace=wrap;html=1;pointerEvents=0;" vertex="1" parent="1">
          <mxGeometry x="220" y="660" width="760" height="70" as="geometry" />
        </mxCell>
        <mxCell id="YJkmyNPaHjpCNyC6iMMe-56" value="Display &quot;Wrong OTP&lt;div&gt;&amp;nbsp;entered&quot;&lt;/div&gt;" style="html=1;verticalAlign=bottom;endArrow=open;dashed=1;endSize=8;edgeStyle=elbowEdgeStyle;elbow=vertical;curved=0;rounded=0;" edge="1" parent="1">
          <mxGeometry relative="1" as="geometry">
            <mxPoint x="110" y="720" as="targetPoint" />
            <Array as="points">
              <mxPoint x="225" y="720" />
            </Array>
            <mxPoint x="260" y="720" as="sourcePoint" />
          </mxGeometry>
        </mxCell>
        <mxCell id="YJkmyNPaHjpCNyC6iMMe-57" value="else" style="shape=umlFrame;whiteSpace=wrap;html=1;pointerEvents=0;" vertex="1" parent="1">
          <mxGeometry x="220" y="730" width="760" height="250" as="geometry" />
        </mxCell>
        <mxCell id="YJkmyNPaHjpCNyC6iMMe-58" value="SetPassword(password)" style="html=1;verticalAlign=bottom;endArrow=block;edgeStyle=elbowEdgeStyle;elbow=horizontal;curved=0;rounded=0;" edge="1" parent="1">
          <mxGeometry relative="1" as="geometry">
            <mxPoint x="275.25" y="790" as="sourcePoint" />
            <Array as="points">
              <mxPoint x="380.25" y="790" />
            </Array>
            <mxPoint x="584.7499999999995" y="790" as="targetPoint" />
          </mxGeometry>
        </mxCell>
        <mxCell id="YJkmyNPaHjpCNyC6iMMe-59" value="inputNew(password)" style="html=1;verticalAlign=bottom;endArrow=block;edgeStyle=elbowEdgeStyle;elbow=horizontal;curved=0;rounded=0;" edge="1" parent="1">
          <mxGeometry relative="1" as="geometry">
            <mxPoint x="115" y="780" as="sourcePoint" />
            <Array as="points">
              <mxPoint x="220" y="780" />
            </Array>
            <mxPoint x="265" y="780" as="targetPoint" />
          </mxGeometry>
        </mxCell>
        <mxCell id="YJkmyNPaHjpCNyC6iMMe-60" value="UpdateDB()" style="html=1;verticalAlign=bottom;endArrow=block;edgeStyle=elbowEdgeStyle;elbow=horizontal;curved=0;rounded=0;" edge="1" parent="1" target="YJkmyNPaHjpCNyC6iMMe-42">
          <mxGeometry relative="1" as="geometry">
            <mxPoint x="275.25" y="820" as="sourcePoint" />
            <Array as="points">
              <mxPoint x="380.25" y="820" />
            </Array>
            <mxPoint x="584.7499999999995" y="820" as="targetPoint" />
          </mxGeometry>
        </mxCell>
        <mxCell id="YJkmyNPaHjpCNyC6iMMe-61" value="return Status" style="html=1;verticalAlign=bottom;endArrow=open;dashed=1;endSize=8;edgeStyle=elbowEdgeStyle;elbow=vertical;curved=0;rounded=0;" edge="1" parent="1" target="YJkmyNPaHjpCNyC6iMMe-4">
          <mxGeometry relative="1" as="geometry">
            <mxPoint x="920" y="850" as="targetPoint" />
            <Array as="points">
              <mxPoint x="1035" y="850" />
            </Array>
            <mxPoint x="1070" y="850" as="sourcePoint" />
          </mxGeometry>
        </mxCell>
        <mxCell id="YJkmyNPaHjpCNyC6iMMe-62" value="if Status is success" style="shape=umlFrame;whiteSpace=wrap;html=1;pointerEvents=0;" vertex="1" parent="1">
          <mxGeometry x="230" y="860" width="410" height="50" as="geometry" />
        </mxCell>
        <mxCell id="YJkmyNPaHjpCNyC6iMMe-63" value="else" style="shape=umlFrame;whiteSpace=wrap;html=1;pointerEvents=0;" vertex="1" parent="1">
          <mxGeometry x="230" y="910" width="410" height="50" as="geometry" />
        </mxCell>
        <mxCell id="YJkmyNPaHjpCNyC6iMMe-64" value="Display&quot;Success&quot;" style="html=1;verticalAlign=bottom;endArrow=open;dashed=1;endSize=8;edgeStyle=elbowEdgeStyle;elbow=vertical;curved=0;rounded=0;" edge="1" parent="1">
          <mxGeometry relative="1" as="geometry">
            <mxPoint x="120" y="900" as="targetPoint" />
            <Array as="points">
              <mxPoint x="235" y="900" />
            </Array>
            <mxPoint x="270" y="900" as="sourcePoint" />
          </mxGeometry>
        </mxCell>
        <mxCell id="YJkmyNPaHjpCNyC6iMMe-65" value="Display&quot;Error&quot;" style="html=1;verticalAlign=bottom;endArrow=open;dashed=1;endSize=8;edgeStyle=elbowEdgeStyle;elbow=vertical;curved=0;rounded=0;" edge="1" parent="1">
          <mxGeometry relative="1" as="geometry">
            <mxPoint x="120" y="950" as="targetPoint" />
            <Array as="points">
              <mxPoint x="235" y="950" />
            </Array>
            <mxPoint x="270" y="950" as="sourcePoint" />
          </mxGeometry>
        </mxCell>
      </root>
    </mxGraphModel>
  </diagram>
</mxfile>
